<svg width="100" height="100" viewBox="0 0 100 100" xmlns="http://www.w3.org/2000/svg">
  <path d="M0 0h100v100H0z" fill="none"/>
  <path d="M10 10h10v10H10zM30 10h10v10H30zM50 10h10v10H50zM70 10h10v10H70zM90 10h10v10H90z" fill="currentColor"/>
  <path d="M0 30h10v10H0zM20 30h10v10H20zM40 30h10v10H40zM60 30h10v10H60zM80 30h10v10H80z" fill="currentColor"/>
  <path d="M10 50h10v10H10zM30 50h10v10H30zM50 50h10v10H50zM70 50h10v10H70zM90 50h10v10H90z" fill="currentColor"/>
  <path d="M0 70h10v10H0zM20 70h10v10H20zM40 70h10v10H40zM60 70h10v10H60zM80 70h10v10H80z" fill="currentColor"/>
  <path d="M10 90h10v10H10zM30 90h10v10H30zM50 90h10v10H50zM70 90h10v10H70zM90 90h10v10H90z" fill="currentColor"/>
</svg>